<svg width="336" height="234" viewBox="0 0 336 234" fill="none" xmlns="http://www.w3.org/2000/svg">
<rect width="335" height="54" rx="27" fill="white"/>
<rect x="0.5" y="0.5" width="334" height="53" rx="26.5" stroke="black" stroke-opacity="0.22"/>
<g clip-path="url(#clip0_49_193)">
<path d="M63.9672 18.6583C61.9689 19.3515 60.2456 20.6673 59.0503 22.4123C57.8551 24.1574 57.2509 26.2397 57.3267 28.3535C57.4024 30.4673 58.1539 32.5011 59.4709 34.1562C60.7879 35.8113 62.601 37.0004 64.6438 37.5489C66.2999 37.9762 68.035 37.995 69.7 37.6036C71.2083 37.2648 72.6028 36.5401 73.7469 35.5005C74.9376 34.3854 75.802 32.9668 76.2469 31.3973C76.7305 29.6906 76.8166 27.8957 76.4985 26.1505H67.1985V30.0083H72.5844C72.4768 30.6236 72.2461 31.2108 71.9062 31.7349C71.5663 32.2589 71.1242 32.7091 70.6063 33.0583C69.9486 33.4933 69.2072 33.786 68.4297 33.9176C67.6499 34.0626 66.8501 34.0626 66.0703 33.9176C65.28 33.7542 64.5324 33.428 63.875 32.9598C62.819 32.2123 62.0261 31.1503 61.6094 29.9255C61.1857 28.6776 61.1857 27.3248 61.6094 26.077C61.906 25.2024 62.3963 24.406 63.0438 23.7473C63.7847 22.9797 64.7227 22.4311 65.755 22.1615C66.7872 21.8919 67.8737 21.9119 68.8953 22.2192C69.6934 22.4642 70.4232 22.8922 71.0266 23.4692C71.6339 22.865 72.2401 22.2593 72.8453 21.652C73.1578 21.3255 73.4985 21.0145 73.8063 20.6801C72.8853 19.8231 71.8042 19.1562 70.625 18.7176C68.4777 17.9379 66.1281 17.917 63.9672 18.6583Z" fill="white"/>
<path d="M63.9676 18.6581C66.1283 17.9163 68.4779 17.9367 70.6254 18.7159C71.8048 19.1574 72.8854 19.8275 73.8051 20.6877C73.4926 21.0221 73.1629 21.3346 72.8441 21.6596C72.2379 22.2648 71.6322 22.8679 71.027 23.469C70.4236 22.892 69.6938 22.464 68.8957 22.219C67.8744 21.9106 66.7879 21.8895 65.7554 22.158C64.7229 22.4264 63.7843 22.9741 63.0426 23.7409C62.3951 24.3995 61.9048 25.1959 61.6082 26.0706L58.3691 23.5627C59.5285 21.2636 61.5359 19.505 63.9676 18.6581Z" fill="#E33629"/>
<path d="M57.5092 26.0469C57.6833 25.1841 57.9723 24.3485 58.3686 23.5625L61.6076 26.0766C61.1839 27.3244 61.1839 28.6772 61.6076 29.925C60.5284 30.7583 59.4488 31.5958 58.3686 32.4375C57.3766 30.463 57.0741 28.2133 57.5092 26.0469Z" fill="#F8BD00"/>
<path d="M67.198 26.1484H76.498C76.8161 27.8936 76.73 29.6885 76.2464 31.3953C75.8015 32.9648 74.9371 34.3834 73.7464 35.4984C72.7011 34.6828 71.6511 33.8734 70.6058 33.0578C71.124 32.7082 71.5663 32.2576 71.9063 31.733C72.2462 31.2084 72.4766 30.6205 72.5839 30.0047H67.198C67.1964 28.7203 67.198 27.4344 67.198 26.1484Z" fill="#587DBD"/>
<path d="M58.3672 32.4373C59.4474 31.604 60.5271 30.7665 61.6062 29.9248C62.0238 31.1501 62.8178 32.2121 63.875 32.9592C64.5344 33.4252 65.2836 33.7488 66.075 33.9092C66.8548 34.0542 67.6546 34.0542 68.4344 33.9092C69.2119 33.7776 69.9533 33.4849 70.6109 33.0498C71.6562 33.8654 72.7063 34.6748 73.7516 35.4904C72.6076 36.5306 71.2132 37.2559 69.7047 37.5951C68.0397 37.9865 66.3046 37.9678 64.6484 37.5404C63.3386 37.1907 62.1151 36.5742 61.0547 35.7295C59.9323 34.8384 59.0156 33.7154 58.3672 32.4373Z" fill="#319F43"/>
</g>
<path d="M102.793 25.5H101.119C101.02 25.0187 100.847 24.5959 100.6 24.2315C100.357 23.8672 100.06 23.5613 99.7092 23.3139C99.3628 23.062 98.9782 22.8731 98.5554 22.7472C98.1326 22.6212 97.6918 22.5582 97.233 22.5582C96.3963 22.5582 95.6384 22.7696 94.9592 23.1925C94.2844 23.6153 93.7469 24.2383 93.3466 25.0614C92.9508 25.8846 92.7528 26.8944 92.7528 28.0909C92.7528 29.2874 92.9508 30.2972 93.3466 31.1204C93.7469 31.9435 94.2844 32.5665 94.9592 32.9893C95.6384 33.4122 96.3963 33.6236 97.233 33.6236C97.6918 33.6236 98.1326 33.5606 98.5554 33.4347C98.9782 33.3087 99.3628 33.122 99.7092 32.8746C100.06 32.6228 100.357 32.3146 100.6 31.9503C100.847 31.5814 101.02 31.1586 101.119 30.6818H102.793C102.667 31.388 102.437 32.02 102.104 32.5778C101.772 33.1355 101.358 33.6101 100.863 34.0014C100.368 34.3883 99.8126 34.6829 99.1964 34.8853C98.5846 35.0877 97.9302 35.1889 97.233 35.1889C96.0545 35.1889 95.0064 34.901 94.0888 34.3253C93.1712 33.7495 92.4492 32.9309 91.9229 31.8693C91.3967 30.8078 91.1335 29.5483 91.1335 28.0909C91.1335 26.6335 91.3967 25.3741 91.9229 24.3125C92.4492 23.2509 93.1712 22.4323 94.0888 21.8565C95.0064 21.2808 96.0545 20.9929 97.233 20.9929C97.9302 20.9929 98.5846 21.0941 99.1964 21.2965C99.8126 21.4989 100.368 21.7958 100.863 22.1871C101.358 22.574 101.772 23.0463 102.104 23.604C102.437 24.1573 102.667 24.7893 102.793 25.5ZM109.491 35.2159C108.555 35.2159 107.734 34.9933 107.028 34.5479C106.326 34.1026 105.778 33.4796 105.382 32.679C104.991 31.8783 104.795 30.9427 104.795 29.8722C104.795 28.7926 104.991 27.8503 105.382 27.0451C105.778 26.2399 106.326 25.6147 107.028 25.1694C107.734 24.7241 108.555 24.5014 109.491 24.5014C110.426 24.5014 111.245 24.7241 111.947 25.1694C112.653 25.6147 113.202 26.2399 113.593 27.0451C113.989 27.8503 114.187 28.7926 114.187 29.8722C114.187 30.9427 113.989 31.8783 113.593 32.679C113.202 33.4796 112.653 34.1026 111.947 34.5479C111.245 34.9933 110.426 35.2159 109.491 35.2159ZM109.491 33.7855C110.202 33.7855 110.786 33.6033 111.245 33.239C111.704 32.8746 112.044 32.3956 112.264 31.8018C112.484 31.2081 112.595 30.5649 112.595 29.8722C112.595 29.1795 112.484 28.534 112.264 27.9357C112.044 27.3375 111.704 26.8539 111.245 26.4851C110.786 26.1162 110.202 25.9318 109.491 25.9318C108.78 25.9318 108.195 26.1162 107.737 26.4851C107.278 26.8539 106.938 27.3375 106.718 27.9357C106.497 28.534 106.387 29.1795 106.387 29.8722C106.387 30.5649 106.497 31.2081 106.718 31.8018C106.938 32.3956 107.278 32.8746 107.737 33.239C108.195 33.6033 108.78 33.7855 109.491 33.7855ZM118.21 28.7656V35H116.618V24.6364H118.156V26.2557H118.291C118.534 25.7294 118.903 25.3066 119.397 24.9872C119.892 24.6634 120.531 24.5014 121.314 24.5014C122.015 24.5014 122.629 24.6454 123.156 24.9332C123.682 25.2166 124.091 25.6484 124.384 26.2287C124.676 26.8045 124.822 27.5331 124.822 28.4148V35H123.23V28.5227C123.23 27.7086 123.018 27.0743 122.596 26.62C122.173 26.1612 121.592 25.9318 120.855 25.9318C120.346 25.9318 119.892 26.042 119.492 26.2624C119.096 26.4828 118.783 26.8045 118.554 27.2273C118.325 27.6501 118.21 28.1629 118.21 28.7656ZM132.239 24.6364V25.9858H126.868V24.6364H132.239ZM128.434 22.1534H130.026V32.0312C130.026 32.4811 130.091 32.8184 130.222 33.0433C130.356 33.2637 130.527 33.4122 130.734 33.4886C130.946 33.5606 131.168 33.5966 131.402 33.5966C131.578 33.5966 131.722 33.5876 131.834 33.5696C131.947 33.5471 132.036 33.5291 132.104 33.5156L132.428 34.946C132.32 34.9865 132.169 35.027 131.976 35.0675C131.782 35.1125 131.537 35.1349 131.24 35.1349C130.791 35.1349 130.35 35.0382 129.918 34.8448C129.491 34.6514 129.135 34.3568 128.852 33.9609C128.573 33.5651 128.434 33.0658 128.434 32.4631V22.1534ZM134.634 35V24.6364H136.226V35H134.634ZM135.444 22.9091C135.133 22.9091 134.866 22.8034 134.641 22.592C134.42 22.3806 134.31 22.1264 134.31 21.8295C134.31 21.5327 134.42 21.2785 134.641 21.0671C134.866 20.8557 135.133 20.75 135.444 20.75C135.754 20.75 136.02 20.8557 136.24 21.0671C136.465 21.2785 136.577 21.5327 136.577 21.8295C136.577 22.1264 136.465 22.3806 136.24 22.592C136.02 22.8034 135.754 22.9091 135.444 22.9091ZM140.735 28.7656V35H139.143V24.6364H140.681V26.2557H140.816C141.059 25.7294 141.428 25.3066 141.923 24.9872C142.418 24.6634 143.056 24.5014 143.839 24.5014C144.541 24.5014 145.155 24.6454 145.681 24.9332C146.207 25.2166 146.617 25.6484 146.909 26.2287C147.201 26.8045 147.347 27.5331 147.347 28.4148V35H145.755V28.5227C145.755 27.7086 145.544 27.0743 145.121 26.62C144.698 26.1612 144.118 25.9318 143.38 25.9318C142.872 25.9318 142.418 26.042 142.017 26.2624C141.621 26.4828 141.309 26.8045 141.079 27.2273C140.85 27.6501 140.735 28.1629 140.735 28.7656ZM156.788 30.7628V24.6364H158.381V35H156.788V33.2457H156.68C156.438 33.772 156.06 34.2196 155.547 34.5884C155.034 34.9528 154.386 35.1349 153.604 35.1349C152.956 35.1349 152.38 34.9933 151.877 34.7099C151.373 34.422 150.977 33.9902 150.689 33.4144C150.401 32.8342 150.257 32.1032 150.257 31.2216V24.6364H151.85V31.1136C151.85 31.8693 152.061 32.4721 152.484 32.9219C152.911 33.3717 153.455 33.5966 154.117 33.5966C154.512 33.5966 154.915 33.4954 155.324 33.293C155.738 33.0906 156.084 32.7802 156.363 32.3619C156.647 31.9435 156.788 31.4105 156.788 30.7628ZM165.642 35.2159C164.644 35.2159 163.782 34.9955 163.058 34.5547C162.339 34.1094 161.783 33.4886 161.392 32.6925C161.005 31.8918 160.811 30.9607 160.811 29.8991C160.811 28.8376 161.005 27.902 161.392 27.0923C161.783 26.2782 162.327 25.6439 163.025 25.1896C163.726 24.7308 164.545 24.5014 165.48 24.5014C166.02 24.5014 166.553 24.5914 167.08 24.7713C167.606 24.9512 168.085 25.2436 168.517 25.6484C168.949 26.0488 169.293 26.5795 169.549 27.2408C169.805 27.902 169.934 28.7161 169.934 29.6832V30.358H161.945V28.9815H168.314C168.314 28.3968 168.197 27.875 167.963 27.4162C167.734 26.9574 167.406 26.5953 166.978 26.3299C166.556 26.0645 166.056 25.9318 165.48 25.9318C164.846 25.9318 164.297 26.0893 163.834 26.4041C163.375 26.7145 163.022 27.1193 162.775 27.6186C162.527 28.1179 162.404 28.6532 162.404 29.2244V30.142C162.404 30.9247 162.539 31.5882 162.809 32.1325C163.083 32.6722 163.463 33.0838 163.949 33.3672C164.435 33.6461 164.999 33.7855 165.642 33.7855C166.061 33.7855 166.439 33.727 166.776 33.6101C167.118 33.4886 167.412 33.3087 167.66 33.0703C167.907 32.8274 168.098 32.526 168.233 32.1662L169.772 32.598C169.61 33.1198 169.338 33.5786 168.955 33.9744C168.573 34.3658 168.101 34.6716 167.538 34.892C166.976 35.108 166.344 35.2159 165.642 35.2159ZM180.425 35L176.647 21.1818H178.347L181.235 32.4361H181.37L184.312 21.1818H186.201L189.143 32.4361H189.278L192.165 21.1818H193.866L190.087 35H188.36L185.31 23.9886H185.202L182.153 35H180.425ZM195.735 35V24.6364H197.327V35H195.735ZM196.544 22.9091C196.234 22.9091 195.966 22.8034 195.741 22.592C195.521 22.3806 195.411 22.1264 195.411 21.8295C195.411 21.5327 195.521 21.2785 195.741 21.0671C195.966 20.8557 196.234 20.75 196.544 20.75C196.855 20.75 197.12 20.8557 197.341 21.0671C197.565 21.2785 197.678 21.5327 197.678 21.8295C197.678 22.1264 197.565 22.3806 197.341 22.592C197.12 22.8034 196.855 22.9091 196.544 22.9091ZM204.751 24.6364V25.9858H199.38V24.6364H204.751ZM200.945 22.1534H202.538V32.0312C202.538 32.4811 202.603 32.8184 202.733 33.0433C202.868 33.2637 203.039 33.4122 203.246 33.4886C203.457 33.5606 203.68 33.5966 203.914 33.5966C204.089 33.5966 204.233 33.5876 204.346 33.5696C204.458 33.5471 204.548 33.5291 204.616 33.5156L204.94 34.946C204.832 34.9865 204.681 35.027 204.487 35.0675C204.294 35.1125 204.049 35.1349 203.752 35.1349C203.302 35.1349 202.861 35.0382 202.43 34.8448C202.002 34.6514 201.647 34.3568 201.364 33.9609C201.085 33.5651 200.945 33.0658 200.945 32.4631V22.1534ZM208.961 28.7656V35H207.369V21.1818H208.961V26.2557H209.096C209.339 25.7204 209.703 25.2953 210.189 24.9805C210.679 24.6611 211.331 24.5014 212.146 24.5014C212.852 24.5014 213.47 24.6431 214.001 24.9265C214.532 25.2054 214.943 25.6349 215.236 26.2152C215.533 26.791 215.681 27.5241 215.681 28.4148V35H214.089V28.5227C214.089 27.6996 213.875 27.0631 213.448 26.6133C213.025 26.159 212.438 25.9318 211.687 25.9318C211.165 25.9318 210.697 26.042 210.283 26.2624C209.874 26.4828 209.55 26.8045 209.312 27.2273C209.078 27.6501 208.961 28.1629 208.961 28.7656ZM233.6 25.5C233.451 25.0457 233.256 24.6386 233.013 24.2788C232.774 23.9144 232.489 23.604 232.156 23.3477C231.828 23.0913 231.454 22.8956 231.036 22.7607C230.618 22.6257 230.159 22.5582 229.659 22.5582C228.841 22.5582 228.096 22.7696 227.426 23.1925C226.756 23.6153 226.223 24.2383 225.827 25.0614C225.431 25.8846 225.233 26.8944 225.233 28.0909C225.233 29.2874 225.433 30.2972 225.834 31.1204C226.234 31.9435 226.776 32.5665 227.46 32.9893C228.144 33.4122 228.913 33.6236 229.767 33.6236C230.559 33.6236 231.256 33.4549 231.859 33.1175C232.466 32.7757 232.939 32.2944 233.276 31.6737C233.618 31.0484 233.789 30.313 233.789 29.4673L234.301 29.5753H230.145V28.0909H235.408V29.5753C235.408 30.7133 235.165 31.7029 234.679 32.544C234.198 33.3852 233.532 34.0374 232.682 34.5007C231.837 34.9595 230.865 35.1889 229.767 35.1889C228.544 35.1889 227.469 34.901 226.542 34.3253C225.62 33.7495 224.9 32.9309 224.383 31.8693C223.87 30.8078 223.614 29.5483 223.614 28.0909C223.614 26.9979 223.76 26.015 224.053 25.1424C224.349 24.2653 224.768 23.5186 225.308 22.9023C225.847 22.2861 226.486 21.8138 227.224 21.4854C227.961 21.1571 228.773 20.9929 229.659 20.9929C230.388 20.9929 231.067 21.1031 231.697 21.3235C232.331 21.5394 232.896 21.8475 233.391 22.2479C233.89 22.6437 234.306 23.1183 234.639 23.6715C234.972 24.2203 235.201 24.8298 235.327 25.5H233.6ZM242.268 35.2159C241.333 35.2159 240.512 34.9933 239.805 34.5479C239.104 34.1026 238.555 33.4796 238.159 32.679C237.768 31.8783 237.572 30.9427 237.572 29.8722C237.572 28.7926 237.768 27.8503 238.159 27.0451C238.555 26.2399 239.104 25.6147 239.805 25.1694C240.512 24.7241 241.333 24.5014 242.268 24.5014C243.204 24.5014 244.022 24.7241 244.724 25.1694C245.43 25.6147 245.979 26.2399 246.37 27.0451C246.766 27.8503 246.964 28.7926 246.964 29.8722C246.964 30.9427 246.766 31.8783 246.37 32.679C245.979 33.4796 245.43 34.1026 244.724 34.5479C244.022 34.9933 243.204 35.2159 242.268 35.2159ZM242.268 33.7855C242.979 33.7855 243.564 33.6033 244.022 33.239C244.481 32.8746 244.821 32.3956 245.041 31.8018C245.262 31.2081 245.372 30.5649 245.372 29.8722C245.372 29.1795 245.262 28.534 245.041 27.9357C244.821 27.3375 244.481 26.8539 244.022 26.4851C243.564 26.1162 242.979 25.9318 242.268 25.9318C241.557 25.9318 240.973 26.1162 240.514 26.4851C240.055 26.8539 239.716 27.3375 239.495 27.9357C239.275 28.534 239.165 29.1795 239.165 29.8722C239.165 30.5649 239.275 31.2081 239.495 31.8018C239.716 32.3956 240.055 32.8746 240.514 33.239C240.973 33.6033 241.557 33.7855 242.268 33.7855ZM253.605 35.2159C252.67 35.2159 251.849 34.9933 251.142 34.5479C250.441 34.1026 249.892 33.4796 249.496 32.679C249.105 31.8783 248.909 30.9427 248.909 29.8722C248.909 28.7926 249.105 27.8503 249.496 27.0451C249.892 26.2399 250.441 25.6147 251.142 25.1694C251.849 24.7241 252.67 24.5014 253.605 24.5014C254.541 24.5014 255.359 24.7241 256.061 25.1694C256.767 25.6147 257.316 26.2399 257.707 27.0451C258.103 27.8503 258.301 28.7926 258.301 29.8722C258.301 30.9427 258.103 31.8783 257.707 32.679C257.316 33.4796 256.767 34.1026 256.061 34.5479C255.359 34.9933 254.541 35.2159 253.605 35.2159ZM253.605 33.7855C254.316 33.7855 254.901 33.6033 255.359 33.239C255.818 32.8746 256.158 32.3956 256.378 31.8018C256.599 31.2081 256.709 30.5649 256.709 29.8722C256.709 29.1795 256.599 28.534 256.378 27.9357C256.158 27.3375 255.818 26.8539 255.359 26.4851C254.901 26.1162 254.316 25.9318 253.605 25.9318C252.894 25.9318 252.31 26.1162 251.851 26.4851C251.392 26.8539 251.052 27.3375 250.832 27.9357C250.612 28.534 250.501 29.1795 250.501 29.8722C250.501 30.5649 250.612 31.2081 250.832 31.8018C251.052 32.3956 251.392 32.8746 251.851 33.239C252.31 33.6033 252.894 33.7855 253.605 33.7855ZM264.915 39.1023C264.146 39.1023 263.485 39.0033 262.931 38.8054C262.378 38.612 261.917 38.3556 261.548 38.0362C261.184 37.7214 260.894 37.384 260.678 37.0241L261.946 36.1335C262.09 36.3224 262.272 36.5384 262.493 36.7812C262.713 37.0286 263.015 37.2423 263.397 37.4222C263.784 37.6067 264.29 37.6989 264.915 37.6989C265.752 37.6989 266.442 37.4964 266.986 37.0916C267.531 36.6868 267.803 36.0526 267.803 35.1889V33.0838H267.668C267.551 33.2727 267.384 33.5066 267.169 33.7855C266.957 34.0599 266.651 34.305 266.251 34.521C265.855 34.7324 265.32 34.8381 264.645 34.8381C263.809 34.8381 263.057 34.6402 262.392 34.2443C261.73 33.8485 261.206 33.2727 260.82 32.517C260.437 31.7614 260.246 30.8437 260.246 29.7642C260.246 28.7027 260.433 27.7783 260.806 26.9911C261.179 26.1995 261.699 25.5877 262.365 25.1559C263.03 24.7196 263.8 24.5014 264.672 24.5014C265.347 24.5014 265.882 24.6139 266.278 24.8388C266.678 25.0592 266.984 25.3111 267.196 25.5945C267.411 25.8733 267.578 26.1027 267.695 26.2827H267.857V24.6364H269.395V35.2969C269.395 36.1875 269.193 36.9117 268.788 37.4695C268.388 38.0317 267.848 38.4433 267.169 38.7042C266.494 38.9696 265.743 39.1023 264.915 39.1023ZM264.861 33.4077C265.5 33.4077 266.04 33.2615 266.48 32.9691C266.921 32.6767 267.256 32.2562 267.486 31.7074C267.715 31.1586 267.83 30.5019 267.83 29.7372C267.83 28.9905 267.717 28.3316 267.492 27.7603C267.268 27.189 266.935 26.7415 266.494 26.4176C266.053 26.0937 265.509 25.9318 264.861 25.9318C264.186 25.9318 263.624 26.1027 263.174 26.4446C262.729 26.7865 262.394 27.2453 262.169 27.821C261.949 28.3968 261.838 29.0355 261.838 29.7372C261.838 30.4569 261.951 31.0934 262.176 31.6467C262.405 32.1954 262.742 32.6272 263.188 32.9421C263.638 33.2525 264.195 33.4077 264.861 33.4077ZM273.902 21.1818V35H272.31V21.1818H273.902ZM281.164 35.2159C280.165 35.2159 279.304 34.9955 278.58 34.5547C277.86 34.1094 277.305 33.4886 276.913 32.6925C276.526 31.8918 276.333 30.9607 276.333 29.8991C276.333 28.8376 276.526 27.902 276.913 27.0923C277.305 26.2782 277.849 25.6439 278.546 25.1896C279.248 24.7308 280.066 24.5014 281.002 24.5014C281.542 24.5014 282.075 24.5914 282.601 24.7713C283.127 24.9512 283.606 25.2436 284.038 25.6484C284.47 26.0488 284.814 26.5795 285.07 27.2408C285.327 27.902 285.455 28.7161 285.455 29.6832V30.358H277.466V28.9815H283.836C283.836 28.3968 283.719 27.875 283.485 27.4162C283.256 26.9574 282.927 26.5953 282.5 26.3299C282.077 26.0645 281.578 25.9318 281.002 25.9318C280.368 25.9318 279.819 26.0893 279.356 26.4041C278.897 26.7145 278.544 27.1193 278.296 27.6186C278.049 28.1179 277.925 28.6532 277.925 29.2244V30.142C277.925 30.9247 278.06 31.5882 278.33 32.1325C278.604 32.6722 278.985 33.0838 279.47 33.3672C279.956 33.6461 280.521 33.7855 281.164 33.7855C281.582 33.7855 281.96 33.727 282.297 33.6101C282.639 33.4886 282.934 33.3087 283.181 33.0703C283.429 32.8274 283.62 32.526 283.755 32.1662L285.293 32.598C285.131 33.1198 284.859 33.5786 284.477 33.9744C284.094 34.3658 283.622 34.6716 283.06 34.892C282.498 35.108 281.866 35.2159 281.164 35.2159Z" fill="black" fill-opacity="0.56"/>
<rect y="90" width="335" height="54" rx="27" fill="white"/>
<rect x="0.5" y="90.5" width="334" height="53" rx="26.5" stroke="black" stroke-opacity="0.22"/>
<path d="M103.793 117.5H102.119C102.02 117.019 101.847 116.596 101.6 116.232C101.357 115.867 101.06 115.561 100.709 115.314C100.363 115.062 99.9782 114.873 99.5554 114.747C99.1326 114.621 98.6918 114.558 98.233 114.558C97.3963 114.558 96.6384 114.77 95.9592 115.192C95.2844 115.615 94.7469 116.238 94.3466 117.061C93.9508 117.885 93.7528 118.894 93.7528 120.091C93.7528 121.287 93.9508 122.297 94.3466 123.12C94.7469 123.944 95.2844 124.567 95.9592 124.989C96.6384 125.412 97.3963 125.624 98.233 125.624C98.6918 125.624 99.1326 125.561 99.5554 125.435C99.9782 125.309 100.363 125.122 100.709 124.875C101.06 124.623 101.357 124.315 101.6 123.95C101.847 123.581 102.02 123.159 102.119 122.682H103.793C103.667 123.388 103.437 124.02 103.104 124.578C102.772 125.136 102.358 125.61 101.863 126.001C101.368 126.388 100.813 126.683 100.196 126.885C99.5846 127.088 98.9302 127.189 98.233 127.189C97.0545 127.189 96.0064 126.901 95.0888 126.325C94.1712 125.75 93.4492 124.931 92.9229 123.869C92.3967 122.808 92.1335 121.548 92.1335 120.091C92.1335 118.634 92.3967 117.374 92.9229 116.312C93.4492 115.251 94.1712 114.432 95.0888 113.857C96.0064 113.281 97.0545 112.993 98.233 112.993C98.9302 112.993 99.5846 113.094 100.196 113.297C100.813 113.499 101.368 113.796 101.863 114.187C102.358 114.574 102.772 115.046 103.104 115.604C103.437 116.157 103.667 116.789 103.793 117.5ZM110.491 127.216C109.555 127.216 108.734 126.993 108.028 126.548C107.326 126.103 106.778 125.48 106.382 124.679C105.991 123.878 105.795 122.943 105.795 121.872C105.795 120.793 105.991 119.85 106.382 119.045C106.778 118.24 107.326 117.615 108.028 117.169C108.734 116.724 109.555 116.501 110.491 116.501C111.426 116.501 112.245 116.724 112.947 117.169C113.653 117.615 114.202 118.24 114.593 119.045C114.989 119.85 115.187 120.793 115.187 121.872C115.187 122.943 114.989 123.878 114.593 124.679C114.202 125.48 113.653 126.103 112.947 126.548C112.245 126.993 111.426 127.216 110.491 127.216ZM110.491 125.786C111.202 125.786 111.786 125.603 112.245 125.239C112.704 124.875 113.044 124.396 113.264 123.802C113.484 123.208 113.595 122.565 113.595 121.872C113.595 121.179 113.484 120.534 113.264 119.936C113.044 119.337 112.704 118.854 112.245 118.485C111.786 118.116 111.202 117.932 110.491 117.932C109.78 117.932 109.195 118.116 108.737 118.485C108.278 118.854 107.938 119.337 107.718 119.936C107.497 120.534 107.387 121.179 107.387 121.872C107.387 122.565 107.497 123.208 107.718 123.802C107.938 124.396 108.278 124.875 108.737 125.239C109.195 125.603 109.78 125.786 110.491 125.786ZM119.21 120.766V127H117.618V116.636H119.156V118.256H119.291C119.534 117.729 119.903 117.307 120.397 116.987C120.892 116.663 121.531 116.501 122.314 116.501C123.015 116.501 123.629 116.645 124.156 116.933C124.682 117.217 125.091 117.648 125.384 118.229C125.676 118.804 125.822 119.533 125.822 120.415V127H124.23V120.523C124.23 119.709 124.018 119.074 123.596 118.62C123.173 118.161 122.592 117.932 121.855 117.932C121.346 117.932 120.892 118.042 120.492 118.262C120.096 118.483 119.783 118.804 119.554 119.227C119.325 119.65 119.21 120.163 119.21 120.766ZM133.239 116.636V117.986H127.868V116.636H133.239ZM129.434 114.153H131.026V124.031C131.026 124.481 131.091 124.818 131.222 125.043C131.356 125.264 131.527 125.412 131.734 125.489C131.946 125.561 132.168 125.597 132.402 125.597C132.578 125.597 132.722 125.588 132.834 125.57C132.947 125.547 133.036 125.529 133.104 125.516L133.428 126.946C133.32 126.987 133.169 127.027 132.976 127.067C132.782 127.112 132.537 127.135 132.24 127.135C131.791 127.135 131.35 127.038 130.918 126.845C130.491 126.651 130.135 126.357 129.852 125.961C129.573 125.565 129.434 125.066 129.434 124.463V114.153ZM135.634 127V116.636H137.226V127H135.634ZM136.444 114.909C136.133 114.909 135.866 114.803 135.641 114.592C135.42 114.381 135.31 114.126 135.31 113.83C135.31 113.533 135.42 113.279 135.641 113.067C135.866 112.856 136.133 112.75 136.444 112.75C136.754 112.75 137.02 112.856 137.24 113.067C137.465 113.279 137.577 113.533 137.577 113.83C137.577 114.126 137.465 114.381 137.24 114.592C137.02 114.803 136.754 114.909 136.444 114.909ZM141.735 120.766V127H140.143V116.636H141.681V118.256H141.816C142.059 117.729 142.428 117.307 142.923 116.987C143.418 116.663 144.056 116.501 144.839 116.501C145.541 116.501 146.155 116.645 146.681 116.933C147.207 117.217 147.617 117.648 147.909 118.229C148.201 118.804 148.347 119.533 148.347 120.415V127H146.755V120.523C146.755 119.709 146.544 119.074 146.121 118.62C145.698 118.161 145.118 117.932 144.38 117.932C143.872 117.932 143.418 118.042 143.017 118.262C142.621 118.483 142.309 118.804 142.079 119.227C141.85 119.65 141.735 120.163 141.735 120.766ZM157.788 122.763V116.636H159.381V127H157.788V125.246H157.68C157.438 125.772 157.06 126.22 156.547 126.588C156.034 126.953 155.386 127.135 154.604 127.135C153.956 127.135 153.38 126.993 152.877 126.71C152.373 126.422 151.977 125.99 151.689 125.414C151.401 124.834 151.257 124.103 151.257 123.222V116.636H152.85V123.114C152.85 123.869 153.061 124.472 153.484 124.922C153.911 125.372 154.455 125.597 155.117 125.597C155.512 125.597 155.915 125.495 156.324 125.293C156.738 125.091 157.084 124.78 157.363 124.362C157.647 123.944 157.788 123.411 157.788 122.763ZM166.642 127.216C165.644 127.216 164.782 126.996 164.058 126.555C163.339 126.109 162.783 125.489 162.392 124.692C162.005 123.892 161.811 122.961 161.811 121.899C161.811 120.838 162.005 119.902 162.392 119.092C162.783 118.278 163.327 117.644 164.025 117.19C164.726 116.731 165.545 116.501 166.48 116.501C167.02 116.501 167.553 116.591 168.08 116.771C168.606 116.951 169.085 117.244 169.517 117.648C169.949 118.049 170.293 118.58 170.549 119.241C170.805 119.902 170.934 120.716 170.934 121.683V122.358H162.945V120.982H169.314C169.314 120.397 169.197 119.875 168.963 119.416C168.734 118.957 168.406 118.595 167.978 118.33C167.556 118.065 167.056 117.932 166.48 117.932C165.846 117.932 165.297 118.089 164.834 118.404C164.375 118.714 164.022 119.119 163.775 119.619C163.527 120.118 163.404 120.653 163.404 121.224V122.142C163.404 122.925 163.539 123.588 163.809 124.132C164.083 124.672 164.463 125.084 164.949 125.367C165.435 125.646 165.999 125.786 166.642 125.786C167.061 125.786 167.439 125.727 167.776 125.61C168.118 125.489 168.412 125.309 168.66 125.07C168.907 124.827 169.098 124.526 169.233 124.166L170.772 124.598C170.61 125.12 170.338 125.579 169.955 125.974C169.573 126.366 169.101 126.672 168.538 126.892C167.976 127.108 167.344 127.216 166.642 127.216ZM181.425 127L177.647 113.182H179.347L182.235 124.436H182.37L185.312 113.182H187.201L190.143 124.436H190.278L193.165 113.182H194.866L191.087 127H189.36L186.31 115.989H186.202L183.153 127H181.425ZM196.735 127V116.636H198.327V127H196.735ZM197.544 114.909C197.234 114.909 196.966 114.803 196.741 114.592C196.521 114.381 196.411 114.126 196.411 113.83C196.411 113.533 196.521 113.279 196.741 113.067C196.966 112.856 197.234 112.75 197.544 112.75C197.855 112.75 198.12 112.856 198.341 113.067C198.565 113.279 198.678 113.533 198.678 113.83C198.678 114.126 198.565 114.381 198.341 114.592C198.12 114.803 197.855 114.909 197.544 114.909ZM205.751 116.636V117.986H200.38V116.636H205.751ZM201.945 114.153H203.538V124.031C203.538 124.481 203.603 124.818 203.733 125.043C203.868 125.264 204.039 125.412 204.246 125.489C204.457 125.561 204.68 125.597 204.914 125.597C205.089 125.597 205.233 125.588 205.346 125.57C205.458 125.547 205.548 125.529 205.616 125.516L205.94 126.946C205.832 126.987 205.681 127.027 205.487 127.067C205.294 127.112 205.049 127.135 204.752 127.135C204.302 127.135 203.861 127.038 203.43 126.845C203.002 126.651 202.647 126.357 202.364 125.961C202.085 125.565 201.945 125.066 201.945 124.463V114.153ZM209.961 120.766V127H208.369V113.182H209.961V118.256H210.096C210.339 117.72 210.703 117.295 211.189 116.98C211.679 116.661 212.331 116.501 213.146 116.501C213.852 116.501 214.47 116.643 215.001 116.926C215.532 117.205 215.943 117.635 216.236 118.215C216.533 118.791 216.681 119.524 216.681 120.415V127H215.089V120.523C215.089 119.7 214.875 119.063 214.448 118.613C214.025 118.159 213.438 117.932 212.687 117.932C212.165 117.932 211.697 118.042 211.283 118.262C210.874 118.483 210.55 118.804 210.312 119.227C210.078 119.65 209.961 120.163 209.961 120.766ZM225.154 127V113.182H233.439V114.666H226.827V119.335H232.819V120.82H226.827V127H225.154ZM239.139 127.243C238.482 127.243 237.886 127.119 237.351 126.872C236.816 126.62 236.391 126.258 236.076 125.786C235.761 125.309 235.603 124.733 235.603 124.058C235.603 123.464 235.72 122.983 235.954 122.614C236.188 122.241 236.501 121.949 236.892 121.737C237.283 121.526 237.715 121.368 238.188 121.265C238.664 121.157 239.143 121.071 239.625 121.009C240.254 120.928 240.765 120.867 241.156 120.826C241.552 120.781 241.84 120.707 242.02 120.604C242.204 120.5 242.297 120.32 242.297 120.064V120.01C242.297 119.344 242.114 118.827 241.75 118.458C241.39 118.089 240.844 117.905 240.111 117.905C239.35 117.905 238.754 118.071 238.323 118.404C237.891 118.737 237.587 119.092 237.412 119.47L235.9 118.93C236.17 118.301 236.53 117.81 236.98 117.46C237.434 117.104 237.929 116.857 238.464 116.717C239.004 116.573 239.535 116.501 240.057 116.501C240.389 116.501 240.772 116.542 241.204 116.623C241.64 116.699 242.06 116.859 242.465 117.102C242.875 117.345 243.214 117.711 243.484 118.202C243.754 118.692 243.889 119.349 243.889 120.172V127H242.297V125.597H242.216C242.108 125.821 241.928 126.062 241.676 126.319C241.424 126.575 241.089 126.793 240.671 126.973C240.252 127.153 239.742 127.243 239.139 127.243ZM239.382 125.812C240.012 125.812 240.542 125.689 240.974 125.441C241.41 125.194 241.739 124.875 241.959 124.483C242.184 124.092 242.297 123.68 242.297 123.249V121.791C242.229 121.872 242.081 121.946 241.851 122.014C241.626 122.077 241.366 122.133 241.069 122.183C240.776 122.228 240.491 122.268 240.212 122.304C239.937 122.335 239.715 122.362 239.544 122.385C239.13 122.439 238.743 122.527 238.383 122.648C238.028 122.765 237.74 122.943 237.52 123.181C237.304 123.415 237.196 123.734 237.196 124.139C237.196 124.692 237.4 125.111 237.81 125.394C238.224 125.673 238.748 125.812 239.382 125.812ZM251.006 127.216C250.034 127.216 249.197 126.987 248.496 126.528C247.794 126.069 247.254 125.437 246.876 124.632C246.498 123.827 246.309 122.907 246.309 121.872C246.309 120.82 246.503 119.891 246.89 119.086C247.281 118.276 247.825 117.644 248.523 117.19C249.224 116.731 250.043 116.501 250.979 116.501C251.707 116.501 252.364 116.636 252.949 116.906C253.533 117.176 254.012 117.554 254.386 118.04C254.759 118.526 254.991 119.092 255.081 119.74H253.488C253.367 119.268 253.097 118.849 252.679 118.485C252.265 118.116 251.707 117.932 251.006 117.932C250.385 117.932 249.84 118.094 249.373 118.418C248.909 118.737 248.547 119.189 248.286 119.774C248.03 120.354 247.902 121.036 247.902 121.818C247.902 122.619 248.028 123.316 248.28 123.91C248.536 124.504 248.896 124.965 249.359 125.293C249.827 125.621 250.376 125.786 251.006 125.786C251.419 125.786 251.795 125.714 252.132 125.57C252.47 125.426 252.755 125.219 252.989 124.949C253.223 124.679 253.39 124.355 253.488 123.977H255.081C254.991 124.589 254.768 125.14 254.413 125.63C254.062 126.116 253.596 126.503 253.016 126.791C252.44 127.074 251.77 127.216 251.006 127.216ZM261.754 127.216C260.755 127.216 259.894 126.996 259.17 126.555C258.45 126.109 257.894 125.489 257.503 124.692C257.116 123.892 256.923 122.961 256.923 121.899C256.923 120.838 257.116 119.902 257.503 119.092C257.894 118.278 258.439 117.644 259.136 117.19C259.838 116.731 260.656 116.501 261.592 116.501C262.132 116.501 262.665 116.591 263.191 116.771C263.717 116.951 264.196 117.244 264.628 117.648C265.06 118.049 265.404 118.58 265.66 119.241C265.917 119.902 266.045 120.716 266.045 121.683V122.358H258.056V120.982H264.426C264.426 120.397 264.309 119.875 264.075 119.416C263.845 118.957 263.517 118.595 263.09 118.33C262.667 118.065 262.168 117.932 261.592 117.932C260.958 117.932 260.409 118.089 259.945 118.404C259.487 118.714 259.134 119.119 258.886 119.619C258.639 120.118 258.515 120.653 258.515 121.224V122.142C258.515 122.925 258.65 123.588 258.92 124.132C259.194 124.672 259.574 125.084 260.06 125.367C260.546 125.646 261.11 125.786 261.754 125.786C262.172 125.786 262.55 125.727 262.887 125.61C263.229 125.489 263.524 125.309 263.771 125.07C264.019 124.827 264.21 124.526 264.345 124.166L265.883 124.598C265.721 125.12 265.449 125.579 265.067 125.974C264.684 126.366 264.212 126.672 263.65 126.892C263.087 127.108 262.455 127.216 261.754 127.216ZM268.683 127V113.182H270.275V118.283H270.41C270.527 118.103 270.689 117.873 270.896 117.594C271.108 117.311 271.409 117.059 271.8 116.839C272.196 116.614 272.731 116.501 273.406 116.501C274.279 116.501 275.048 116.72 275.714 117.156C276.379 117.592 276.899 118.211 277.272 119.011C277.646 119.812 277.832 120.757 277.832 121.845C277.832 122.943 277.646 123.894 277.272 124.699C276.899 125.5 276.382 126.121 275.72 126.561C275.059 126.998 274.297 127.216 273.433 127.216C272.767 127.216 272.234 127.106 271.834 126.885C271.434 126.66 271.126 126.406 270.91 126.123C270.694 125.835 270.527 125.597 270.41 125.408H270.221V127H268.683ZM270.248 121.818C270.248 122.601 270.363 123.291 270.593 123.89C270.822 124.483 271.157 124.949 271.598 125.286C272.039 125.619 272.578 125.786 273.217 125.786C273.883 125.786 274.438 125.61 274.884 125.259C275.334 124.904 275.671 124.427 275.896 123.829C276.125 123.226 276.24 122.556 276.24 121.818C276.24 121.089 276.127 120.433 275.903 119.848C275.682 119.259 275.347 118.793 274.897 118.451C274.452 118.105 273.892 117.932 273.217 117.932C272.569 117.932 272.025 118.096 271.584 118.424C271.144 118.748 270.811 119.203 270.586 119.787C270.361 120.368 270.248 121.045 270.248 121.818ZM284.478 127.216C283.543 127.216 282.722 126.993 282.015 126.548C281.314 126.103 280.765 125.48 280.369 124.679C279.978 123.878 279.782 122.943 279.782 121.872C279.782 120.793 279.978 119.85 280.369 119.045C280.765 118.24 281.314 117.615 282.015 117.169C282.722 116.724 283.543 116.501 284.478 116.501C285.414 116.501 286.232 116.724 286.934 117.169C287.64 117.615 288.189 118.24 288.58 119.045C288.976 119.85 289.174 120.793 289.174 121.872C289.174 122.943 288.976 123.878 288.58 124.679C288.189 125.48 287.64 126.103 286.934 126.548C286.232 126.993 285.414 127.216 284.478 127.216ZM284.478 125.786C285.189 125.786 285.774 125.603 286.232 125.239C286.691 124.875 287.031 124.396 287.251 123.802C287.472 123.208 287.582 122.565 287.582 121.872C287.582 121.179 287.472 120.534 287.251 119.936C287.031 119.337 286.691 118.854 286.232 118.485C285.774 118.116 285.189 117.932 284.478 117.932C283.767 117.932 283.183 118.116 282.724 118.485C282.265 118.854 281.925 119.337 281.705 119.936C281.485 120.534 281.374 121.179 281.374 121.872C281.374 122.565 281.485 123.208 281.705 123.802C281.925 124.396 282.265 124.875 282.724 125.239C283.183 125.603 283.767 125.786 284.478 125.786ZM295.815 127.216C294.879 127.216 294.059 126.993 293.352 126.548C292.651 126.103 292.102 125.48 291.706 124.679C291.315 123.878 291.119 122.943 291.119 121.872C291.119 120.793 291.315 119.85 291.706 119.045C292.102 118.24 292.651 117.615 293.352 117.169C294.059 116.724 294.879 116.501 295.815 116.501C296.751 116.501 297.569 116.724 298.271 117.169C298.977 117.615 299.526 118.24 299.917 119.045C300.313 119.85 300.511 120.793 300.511 121.872C300.511 122.943 300.313 123.878 299.917 124.679C299.526 125.48 298.977 126.103 298.271 126.548C297.569 126.993 296.751 127.216 295.815 127.216ZM295.815 125.786C296.526 125.786 297.111 125.603 297.569 125.239C298.028 124.875 298.368 124.396 298.588 123.802C298.809 123.208 298.919 122.565 298.919 121.872C298.919 121.179 298.809 120.534 298.588 119.936C298.368 119.337 298.028 118.854 297.569 118.485C297.111 118.116 296.526 117.932 295.815 117.932C295.104 117.932 294.52 118.116 294.061 118.485C293.602 118.854 293.262 119.337 293.042 119.936C292.822 120.534 292.711 121.179 292.711 121.872C292.711 122.565 292.822 123.208 293.042 123.802C293.262 124.396 293.602 124.875 294.061 125.239C294.52 125.603 295.104 125.786 295.815 125.786ZM304.426 123.222L304.399 121.251H304.723L309.257 116.636H311.227L306.396 121.521H306.261L304.426 123.222ZM302.942 127V113.182H304.534V127H302.942ZM309.527 127L305.479 121.872L306.612 120.766L311.551 127H309.527Z" fill="black" fill-opacity="0.56"/>
<g clip-path="url(#clip1_49_193)">
<path d="M80 118C80 112.477 75.5228 108 70 108C64.4772 108 60 112.477 60 118C60 122.991 63.6569 127.128 68.4375 127.879V120.891H65.8984V118H68.4375V115.797C68.4375 113.291 69.9305 111.906 72.2147 111.906C73.3088 111.906 74.4531 112.102 74.4531 112.102V114.563H73.1922C71.9499 114.563 71.5625 115.333 71.5625 116.124V118H74.3359L73.8926 120.891H71.5625V127.879C76.3431 127.128 80 122.991 80 118Z" fill="#1877F2"/>
<path d="M73.8926 120.891L74.3359 118H71.5625V116.124C71.5625 115.333 71.9499 114.562 73.1922 114.562H74.4531V112.102C74.4531 112.102 73.3088 111.906 72.2146 111.906C69.9305 111.906 68.4375 113.291 68.4375 115.797V118H65.8984V120.891H68.4375V127.879C68.9544 127.96 69.4768 128 70 128C70.5232 128 71.0456 127.96 71.5625 127.879V120.891H73.8926Z" fill="white"/>
</g>
<rect y="180" width="335" height="54" rx="27" fill="white"/>
<rect x="0.5" y="180.5" width="334" height="53" rx="26.5" stroke="black" stroke-opacity="0.22"/>
<path d="M102.793 205.5H101.119C101.02 205.019 100.847 204.596 100.6 204.232C100.357 203.867 100.06 203.561 99.7092 203.314C99.3628 203.062 98.9782 202.873 98.5554 202.747C98.1326 202.621 97.6918 202.558 97.233 202.558C96.3963 202.558 95.6384 202.77 94.9592 203.192C94.2844 203.615 93.7469 204.238 93.3466 205.061C92.9508 205.885 92.7528 206.894 92.7528 208.091C92.7528 209.287 92.9508 210.297 93.3466 211.12C93.7469 211.944 94.2844 212.567 94.9592 212.989C95.6384 213.412 96.3963 213.624 97.233 213.624C97.6918 213.624 98.1326 213.561 98.5554 213.435C98.9782 213.309 99.3628 213.122 99.7092 212.875C100.06 212.623 100.357 212.315 100.6 211.95C100.847 211.581 101.02 211.159 101.119 210.682H102.793C102.667 211.388 102.437 212.02 102.104 212.578C101.772 213.136 101.358 213.61 100.863 214.001C100.368 214.388 99.8126 214.683 99.1964 214.885C98.5846 215.088 97.9302 215.189 97.233 215.189C96.0545 215.189 95.0064 214.901 94.0888 214.325C93.1712 213.75 92.4492 212.931 91.9229 211.869C91.3967 210.808 91.1335 209.548 91.1335 208.091C91.1335 206.634 91.3967 205.374 91.9229 204.312C92.4492 203.251 93.1712 202.432 94.0888 201.857C95.0064 201.281 96.0545 200.993 97.233 200.993C97.9302 200.993 98.5846 201.094 99.1964 201.297C99.8126 201.499 100.368 201.796 100.863 202.187C101.358 202.574 101.772 203.046 102.104 203.604C102.437 204.157 102.667 204.789 102.793 205.5ZM109.491 215.216C108.555 215.216 107.734 214.993 107.028 214.548C106.326 214.103 105.778 213.48 105.382 212.679C104.991 211.878 104.795 210.943 104.795 209.872C104.795 208.793 104.991 207.85 105.382 207.045C105.778 206.24 106.326 205.615 107.028 205.169C107.734 204.724 108.555 204.501 109.491 204.501C110.426 204.501 111.245 204.724 111.947 205.169C112.653 205.615 113.202 206.24 113.593 207.045C113.989 207.85 114.187 208.793 114.187 209.872C114.187 210.943 113.989 211.878 113.593 212.679C113.202 213.48 112.653 214.103 111.947 214.548C111.245 214.993 110.426 215.216 109.491 215.216ZM109.491 213.786C110.202 213.786 110.786 213.603 111.245 213.239C111.704 212.875 112.044 212.396 112.264 211.802C112.484 211.208 112.595 210.565 112.595 209.872C112.595 209.179 112.484 208.534 112.264 207.936C112.044 207.337 111.704 206.854 111.245 206.485C110.786 206.116 110.202 205.932 109.491 205.932C108.78 205.932 108.195 206.116 107.737 206.485C107.278 206.854 106.938 207.337 106.718 207.936C106.497 208.534 106.387 209.179 106.387 209.872C106.387 210.565 106.497 211.208 106.718 211.802C106.938 212.396 107.278 212.875 107.737 213.239C108.195 213.603 108.78 213.786 109.491 213.786ZM118.21 208.766V215H116.618V204.636H118.156V206.256H118.291C118.534 205.729 118.903 205.307 119.397 204.987C119.892 204.663 120.531 204.501 121.314 204.501C122.015 204.501 122.629 204.645 123.156 204.933C123.682 205.217 124.091 205.648 124.384 206.229C124.676 206.804 124.822 207.533 124.822 208.415V215H123.23V208.523C123.23 207.709 123.018 207.074 122.596 206.62C122.173 206.161 121.592 205.932 120.855 205.932C120.346 205.932 119.892 206.042 119.492 206.262C119.096 206.483 118.783 206.804 118.554 207.227C118.325 207.65 118.21 208.163 118.21 208.766ZM132.239 204.636V205.986H126.868V204.636H132.239ZM128.434 202.153H130.026V212.031C130.026 212.481 130.091 212.818 130.222 213.043C130.356 213.264 130.527 213.412 130.734 213.489C130.946 213.561 131.168 213.597 131.402 213.597C131.578 213.597 131.722 213.588 131.834 213.57C131.947 213.547 132.036 213.529 132.104 213.516L132.428 214.946C132.32 214.987 132.169 215.027 131.976 215.067C131.782 215.112 131.537 215.135 131.24 215.135C130.791 215.135 130.35 215.038 129.918 214.845C129.491 214.651 129.135 214.357 128.852 213.961C128.573 213.565 128.434 213.066 128.434 212.463V202.153ZM134.634 215V204.636H136.226V215H134.634ZM135.444 202.909C135.133 202.909 134.866 202.803 134.641 202.592C134.42 202.381 134.31 202.126 134.31 201.83C134.31 201.533 134.42 201.279 134.641 201.067C134.866 200.856 135.133 200.75 135.444 200.75C135.754 200.75 136.02 200.856 136.24 201.067C136.465 201.279 136.577 201.533 136.577 201.83C136.577 202.126 136.465 202.381 136.24 202.592C136.02 202.803 135.754 202.909 135.444 202.909ZM140.735 208.766V215H139.143V204.636H140.681V206.256H140.816C141.059 205.729 141.428 205.307 141.923 204.987C142.418 204.663 143.056 204.501 143.839 204.501C144.541 204.501 145.155 204.645 145.681 204.933C146.207 205.217 146.617 205.648 146.909 206.229C147.201 206.804 147.347 207.533 147.347 208.415V215H145.755V208.523C145.755 207.709 145.544 207.074 145.121 206.62C144.698 206.161 144.118 205.932 143.38 205.932C142.872 205.932 142.418 206.042 142.017 206.262C141.621 206.483 141.309 206.804 141.079 207.227C140.85 207.65 140.735 208.163 140.735 208.766ZM156.788 210.763V204.636H158.381V215H156.788V213.246H156.68C156.438 213.772 156.06 214.22 155.547 214.588C155.034 214.953 154.386 215.135 153.604 215.135C152.956 215.135 152.38 214.993 151.877 214.71C151.373 214.422 150.977 213.99 150.689 213.414C150.401 212.834 150.257 212.103 150.257 211.222V204.636H151.85V211.114C151.85 211.869 152.061 212.472 152.484 212.922C152.911 213.372 153.455 213.597 154.117 213.597C154.512 213.597 154.915 213.495 155.324 213.293C155.738 213.091 156.084 212.78 156.363 212.362C156.647 211.944 156.788 211.411 156.788 210.763ZM165.642 215.216C164.644 215.216 163.782 214.996 163.058 214.555C162.339 214.109 161.783 213.489 161.392 212.692C161.005 211.892 160.811 210.961 160.811 209.899C160.811 208.838 161.005 207.902 161.392 207.092C161.783 206.278 162.327 205.644 163.025 205.19C163.726 204.731 164.545 204.501 165.48 204.501C166.02 204.501 166.553 204.591 167.08 204.771C167.606 204.951 168.085 205.244 168.517 205.648C168.949 206.049 169.293 206.58 169.549 207.241C169.805 207.902 169.934 208.716 169.934 209.683V210.358H161.945V208.982H168.314C168.314 208.397 168.197 207.875 167.963 207.416C167.734 206.957 167.406 206.595 166.978 206.33C166.556 206.065 166.056 205.932 165.48 205.932C164.846 205.932 164.297 206.089 163.834 206.404C163.375 206.714 163.022 207.119 162.775 207.619C162.527 208.118 162.404 208.653 162.404 209.224V210.142C162.404 210.925 162.539 211.588 162.809 212.132C163.083 212.672 163.463 213.084 163.949 213.367C164.435 213.646 164.999 213.786 165.642 213.786C166.061 213.786 166.439 213.727 166.776 213.61C167.118 213.489 167.412 213.309 167.66 213.07C167.907 212.827 168.098 212.526 168.233 212.166L169.772 212.598C169.61 213.12 169.338 213.579 168.955 213.974C168.573 214.366 168.101 214.672 167.538 214.892C166.976 215.108 166.344 215.216 165.642 215.216ZM180.425 215L176.647 201.182H178.347L181.235 212.436H181.37L184.312 201.182H186.201L189.143 212.436H189.278L192.165 201.182H193.866L190.087 215H188.36L185.31 203.989H185.202L182.153 215H180.425ZM195.735 215V204.636H197.327V215H195.735ZM196.544 202.909C196.234 202.909 195.966 202.803 195.741 202.592C195.521 202.381 195.411 202.126 195.411 201.83C195.411 201.533 195.521 201.279 195.741 201.067C195.966 200.856 196.234 200.75 196.544 200.75C196.855 200.75 197.12 200.856 197.341 201.067C197.565 201.279 197.678 201.533 197.678 201.83C197.678 202.126 197.565 202.381 197.341 202.592C197.12 202.803 196.855 202.909 196.544 202.909ZM204.751 204.636V205.986H199.38V204.636H204.751ZM200.945 202.153H202.538V212.031C202.538 212.481 202.603 212.818 202.733 213.043C202.868 213.264 203.039 213.412 203.246 213.489C203.457 213.561 203.68 213.597 203.914 213.597C204.089 213.597 204.233 213.588 204.346 213.57C204.458 213.547 204.548 213.529 204.616 213.516L204.94 214.946C204.832 214.987 204.681 215.027 204.487 215.067C204.294 215.112 204.049 215.135 203.752 215.135C203.302 215.135 202.861 215.038 202.43 214.845C202.002 214.651 201.647 214.357 201.364 213.961C201.085 213.565 200.945 213.066 200.945 212.463V202.153ZM208.961 208.766V215H207.369V201.182H208.961V206.256H209.096C209.339 205.72 209.703 205.295 210.189 204.98C210.679 204.661 211.331 204.501 212.146 204.501C212.852 204.501 213.47 204.643 214.001 204.926C214.532 205.205 214.943 205.635 215.236 206.215C215.533 206.791 215.681 207.524 215.681 208.415V215H214.089V208.523C214.089 207.7 213.875 207.063 213.448 206.613C213.025 206.159 212.438 205.932 211.687 205.932C211.165 205.932 210.697 206.042 210.283 206.262C209.874 206.483 209.55 206.804 209.312 207.227C209.078 207.65 208.961 208.163 208.961 208.766ZM224.154 215V201.182H232.493V202.666H225.827V207.335H232.061V208.82H225.827V213.516H232.601V215H224.154ZM235.293 215V204.636H236.832V206.256H236.967C237.183 205.702 237.531 205.273 238.012 204.967C238.494 204.657 239.072 204.501 239.746 204.501C240.43 204.501 240.999 204.657 241.453 204.967C241.912 205.273 242.27 205.702 242.526 206.256H242.634C242.9 205.72 243.298 205.295 243.828 204.98C244.359 204.661 244.996 204.501 245.738 204.501C246.665 204.501 247.422 204.792 248.012 205.372C248.601 205.948 248.896 206.845 248.896 208.064V215H247.303V208.064C247.303 207.299 247.094 206.753 246.676 206.424C246.257 206.096 245.765 205.932 245.198 205.932C244.469 205.932 243.905 206.152 243.505 206.593C243.104 207.029 242.904 207.583 242.904 208.253V215H241.285V207.902C241.285 207.313 241.094 206.838 240.711 206.478C240.329 206.114 239.836 205.932 239.234 205.932C238.82 205.932 238.433 206.042 238.073 206.262C237.718 206.483 237.43 206.789 237.21 207.18C236.994 207.567 236.886 208.014 236.886 208.523V215H235.293ZM254.857 215.243C254.2 215.243 253.604 215.119 253.069 214.872C252.533 214.62 252.108 214.258 251.794 213.786C251.479 213.309 251.321 212.733 251.321 212.058C251.321 211.464 251.438 210.983 251.672 210.614C251.906 210.241 252.219 209.949 252.61 209.737C253.001 209.526 253.433 209.368 253.905 209.265C254.382 209.157 254.861 209.071 255.343 209.009C255.972 208.928 256.483 208.867 256.874 208.826C257.27 208.781 257.558 208.707 257.738 208.604C257.922 208.5 258.014 208.32 258.014 208.064V208.01C258.014 207.344 257.832 206.827 257.468 206.458C257.108 206.089 256.561 205.905 255.828 205.905C255.068 205.905 254.472 206.071 254.04 206.404C253.608 206.737 253.305 207.092 253.129 207.47L251.618 206.93C251.888 206.301 252.248 205.81 252.698 205.46C253.152 205.104 253.647 204.857 254.182 204.717C254.722 204.573 255.253 204.501 255.774 204.501C256.107 204.501 256.49 204.542 256.921 204.623C257.358 204.699 257.778 204.859 258.183 205.102C258.592 205.345 258.932 205.711 259.202 206.202C259.472 206.692 259.607 207.349 259.607 208.172V215H258.014V213.597H257.933C257.825 213.821 257.646 214.062 257.394 214.319C257.142 214.575 256.807 214.793 256.388 214.973C255.97 215.153 255.459 215.243 254.857 215.243ZM255.1 213.812C255.729 213.812 256.26 213.689 256.692 213.441C257.128 213.194 257.457 212.875 257.677 212.483C257.902 212.092 258.014 211.68 258.014 211.249V209.791C257.947 209.872 257.798 209.946 257.569 210.014C257.344 210.077 257.083 210.133 256.786 210.183C256.494 210.228 256.208 210.268 255.93 210.304C255.655 210.335 255.432 210.362 255.262 210.385C254.848 210.439 254.461 210.527 254.101 210.648C253.746 210.765 253.458 210.943 253.237 211.181C253.021 211.415 252.914 211.734 252.914 212.139C252.914 212.692 253.118 213.111 253.528 213.394C253.941 213.673 254.465 213.812 255.1 213.812ZM262.513 215V204.636H264.105V215H262.513ZM263.323 202.909C263.012 202.909 262.745 202.803 262.52 202.592C262.299 202.381 262.189 202.126 262.189 201.83C262.189 201.533 262.299 201.279 262.52 201.067C262.745 200.856 263.012 200.75 263.323 200.75C263.633 200.75 263.898 200.856 264.119 201.067C264.344 201.279 264.456 201.533 264.456 201.83C264.456 202.126 264.344 202.381 264.119 202.592C263.898 202.803 263.633 202.909 263.323 202.909ZM268.614 201.182V215H267.022V201.182H268.614Z" fill="black" fill-opacity="0.56"/>
<path d="M73.667 200.333H60.3337C59.417 200.333 58.6753 201.083 58.6753 202L58.667 212C58.667 212.916 59.417 213.666 60.3337 213.666H73.667C74.5837 213.666 75.3337 212.916 75.3337 212V202C75.3337 201.083 74.5837 200.333 73.667 200.333ZM73.3337 203.875L67.442 207.558C67.1753 207.725 66.8253 207.725 66.5587 207.558L60.667 203.875C60.5834 203.828 60.5103 203.764 60.4519 203.688C60.3935 203.612 60.3512 203.525 60.3275 203.432C60.3037 203.34 60.2991 203.243 60.3138 203.148C60.3285 203.054 60.3623 202.963 60.4131 202.882C60.4638 202.8 60.5306 202.73 60.6093 202.676C60.6879 202.621 60.7769 202.583 60.8707 202.563C60.9646 202.544 61.0614 202.544 61.1553 202.563C61.2492 202.582 61.3382 202.62 61.417 202.675L67.0003 206.166L72.5837 202.675C72.6624 202.62 72.7515 202.582 72.8454 202.563C72.9393 202.544 73.0361 202.544 73.1299 202.563C73.2238 202.583 73.3127 202.621 73.3914 202.676C73.4701 202.73 73.5368 202.8 73.5876 202.882C73.6384 202.963 73.6722 203.054 73.6869 203.148C73.7016 203.243 73.6969 203.34 73.6732 203.432C73.6494 203.525 73.6071 203.612 73.5488 203.688C73.4904 203.764 73.4172 203.828 73.3337 203.875Z" fill="black"/>
<defs>
<clipPath id="clip0_49_193">
<rect width="20" height="20" fill="white" transform="translate(57 18)"/>
</clipPath>
<clipPath id="clip1_49_193">
<rect width="20" height="20" fill="white" transform="translate(60 108)"/>
</clipPath>
</defs>
</svg>
